<svg width="614" height="100" viewBox="0 0 614 100" fill="none" xmlns="http://www.w3.org/2000/svg">
<path d="M0.506923 36.0123C-0.0405441 33.2974 1.7101 30.6892 4.4171 30.1868L29.001 25.6244C34.1066 24.6769 38.7966 24.869 43.0708 26.2007C47.3704 27.4944 50.9444 29.7861 53.7927 33.0758C56.6728 36.3595 58.6002 40.4177 59.5747 45.2503C60.5621 50.147 60.3419 54.6369 58.9141 58.7201C57.4799 62.7713 54.9812 66.1402 51.418 68.8268C47.8548 71.5134 43.4565 73.3423 38.2232 74.3135L35.2428 74.8667C31.6455 75.5343 30.0313 79.7315 32.2275 82.7072L36.648 88.6969C38.823 91.644 37.2628 95.8028 33.7123 96.522L18.4977 99.6041C15.7689 100.157 13.0792 98.3595 12.5254 95.6133L0.506923 36.0123ZM31.72 60.7788C35.1279 60.1131 37.6118 58.7225 39.1714 56.6069C40.7247 54.4593 41.1755 51.8523 40.5241 48.7858C39.9429 45.7395 38.5207 43.5299 36.2576 42.157C33.9945 40.7841 31.1525 40.3984 27.7316 41.0001L25.5489 41.4052C22.8419 41.9075 21.0913 44.5157 21.6388 47.2307L23.6446 57.1776C24.192 59.8926 26.8303 61.6862 29.5373 61.1838L31.72 60.7788Z" fill="#256D85"/>
<path d="M142.623 44.3398C143.752 51.8894 143.241 58.5718 141.09 64.3868C138.939 70.2018 135.514 74.854 130.814 78.3431C126.115 81.8323 120.578 84.0017 114.203 84.8513C107.763 85.7095 101.774 85.0763 96.2348 82.9516C90.6908 80.7947 86.0323 77.2034 82.2593 72.1779C78.4863 67.1524 76.0376 60.881 74.913 53.3636C73.7836 45.8139 74.2945 39.1316 76.4458 33.3165C78.597 27.5015 82.0223 22.8494 86.7217 19.3602C91.4211 15.871 96.9905 13.6973 103.43 12.8391C109.805 11.9895 115.762 12.6271 121.301 14.7517C126.84 16.8764 131.496 20.4515 135.269 25.477C139.042 30.5025 141.493 36.7901 142.623 44.3398ZM93.8447 50.8405C94.8052 57.261 96.8291 62.0095 99.9165 65.0862C103.004 68.1628 106.965 69.3955 111.799 68.7841C116.592 68.1125 120.02 65.8951 122.084 62.1319C124.148 58.3686 124.684 53.279 123.691 46.8628C122.758 40.4058 120.748 35.639 117.66 32.5623C114.573 29.4857 110.631 28.267 105.833 28.9064C101.004 29.55 97.5571 31.7534 95.493 35.5166C93.4288 39.2799 92.8794 44.3878 93.8447 50.8405Z" fill="#256D85"/>
<path d="M155.81 12.5151C155.541 9.76312 157.551 7.35081 160.299 7.12704L185.261 5.09483C190.478 4.67013 195.14 5.25519 199.248 6.85C203.388 8.44218 206.704 10.9517 209.195 14.3785C211.683 17.7728 213.167 21.9193 213.646 26.8178C214.116 31.619 213.467 35.8247 211.697 39.4348C210.705 41.474 209.397 43.2781 207.774 44.8473C205.722 46.8311 204.935 50.0233 206.552 52.4298L215.811 66.2037C217.944 69.3769 215.939 73.6197 212.162 73.9272L203.409 74.6399C201.57 74.7895 199.783 73.9125 198.759 72.359L187.148 54.7408C186.217 53.328 184.591 52.5304 182.919 52.6665C180.42 52.87 178.592 55.0637 178.837 57.5663L180.202 71.5066C180.471 74.2586 178.462 76.6709 175.713 76.8947L167.198 77.5879C164.449 77.8117 162.003 75.7622 161.733 73.0102L155.81 12.5151ZM184.167 37.9485C191.522 37.3497 194.901 34.1644 194.303 28.3926C194.037 25.3405 192.876 23.1624 190.822 21.8582C188.796 20.519 186 19.9782 182.433 20.2359L180.216 20.4163C177.468 20.6401 175.458 23.0524 175.727 25.8044L176.486 33.5512C176.755 36.3032 179.202 38.3527 181.951 38.1289L184.167 37.9485Z" fill="#256D85"/>
<path d="M226.028 7.08551C225.889 4.32604 228.013 2.01357 230.771 1.92048L281.651 0.203283C284.41 0.11019 286.758 2.27172 286.897 5.0312L287.15 10.0667C287.289 12.8262 285.166 15.1386 282.407 15.2317L271.131 15.6123C268.373 15.7054 266.249 18.0179 266.388 20.7773L268.685 66.4092C268.823 69.1686 266.7 71.4811 263.942 71.5742L255.592 71.856C252.833 71.9491 250.485 69.7876 250.346 67.0281L248.05 21.3963C247.911 18.6368 245.562 16.4753 242.804 16.5684L231.527 16.9489C228.769 17.042 226.421 14.8805 226.282 12.121L226.028 7.08551Z" fill="#256D85"/>
<path d="M302.434 4.99901C302.419 2.23813 304.645 0.0246616 307.407 0.0550831L346.728 0.488217C349.49 0.518639 351.741 2.78143 351.757 5.5423L351.785 10.5804C351.8 13.3412 349.574 15.5547 346.812 15.5243L326.048 15.2956C323.286 15.2652 321.059 17.4786 321.075 20.2395L321.09 23.0319C321.106 25.7928 323.357 28.0556 326.119 28.086L343.758 28.2803C346.519 28.3107 348.771 30.5735 348.786 33.3344L348.814 38.3725C348.829 41.1333 346.603 43.3468 343.841 43.3164L326.202 43.1221C323.441 43.0917 321.214 45.3051 321.23 48.066L321.329 65.8945C321.344 68.6554 319.118 70.8689 316.356 70.8384L307.8 70.7442C305.038 70.7138 302.787 68.451 302.772 65.6901L302.434 4.99901Z" fill="#256D85"/>
<path d="M433.684 40.2033C433.357 47.8059 431.581 54.2475 428.354 59.528C425.127 64.8085 420.867 68.7084 415.574 71.2276C410.281 73.7469 404.414 74.8151 397.974 74.4323C391.469 74.0457 385.691 72.2854 380.64 69.1513C375.591 65.9848 371.688 61.5835 368.93 55.9472C366.172 50.311 364.955 43.7078 365.28 36.1376C365.606 28.5349 367.383 22.0934 370.61 16.8129C373.836 11.5324 378.096 7.63251 383.389 5.11326C388.683 2.594 394.582 1.52769 401.087 1.91434C407.527 2.29713 413.273 4.05553 418.323 7.18956C423.373 10.3236 427.278 14.7087 430.036 20.3449C432.794 25.9811 434.01 32.6006 433.684 40.2033ZM384.406 37.2744C384.128 43.7399 385.216 48.772 387.671 52.3706C390.125 55.9692 393.791 57.9298 398.669 58.2523C403.516 58.5078 407.315 56.991 410.065 53.7017C412.815 50.4124 414.313 45.534 414.558 39.0665C414.869 32.5704 413.798 27.5231 411.344 23.9244C408.889 20.3258 405.239 18.3825 400.393 18.0944C395.513 17.8045 391.699 19.3041 388.949 22.5934C386.199 25.8827 384.685 30.7764 384.406 37.2744Z" fill="#256D85"/>
<path d="M452.567 11.6323C452.818 8.88719 455.251 6.90202 458.001 7.19829L466.522 8.11613C469.272 8.41241 471.298 10.8779 471.048 13.623L466.9 59.0172C466.65 61.7623 468.676 64.2278 471.426 64.5241L490.16 66.5421C492.91 66.8384 494.936 69.3039 494.686 72.049L494.228 77.0583C493.977 79.8034 491.544 81.7885 488.794 81.4923L451.58 77.4835C448.829 77.1873 446.803 74.7217 447.054 71.9766L452.567 11.6323Z" fill="#256D85"/>
<path d="M525.973 81.5123C525.635 84.2466 523.139 86.1526 520.398 85.7694L511.907 84.5824C509.166 84.1992 507.217 81.6719 507.555 78.9376L514.983 18.8302C515.321 16.0958 517.817 14.1899 520.558 14.5731L529.05 15.7601C531.791 16.1433 533.739 18.6706 533.401 21.4049L525.973 81.5123Z" fill="#256D85"/>
<path d="M613.059 65.6102C611.832 73.1056 609.301 79.2785 605.464 84.1287C601.627 88.9789 596.926 92.3385 591.361 94.2075C585.796 96.0764 579.833 96.4394 573.471 95.2965C567.044 94.142 561.505 91.7124 556.852 88.0079C552.204 84.2713 548.843 79.4468 546.767 73.5344C544.692 67.622 544.265 60.9341 545.486 53.4708C546.713 45.9754 549.244 39.8025 553.081 34.9523C556.918 30.102 561.619 26.7424 567.184 24.8735C572.749 23.0046 578.745 22.6474 585.171 23.8018C591.533 24.9448 597.041 27.3685 601.693 31.0731C606.346 34.7777 609.711 39.5862 611.786 45.4985C613.861 51.4109 614.286 58.1148 613.059 65.6102ZM564.38 56.865C563.336 63.2393 563.822 68.355 565.837 72.2121C567.852 76.0693 571.267 78.4468 576.081 79.3447C580.874 80.1728 584.834 79.12 587.96 76.1865C591.086 73.2529 593.155 68.5961 594.166 62.216C595.246 55.8155 594.779 50.6866 592.764 46.8295C590.749 42.9723 587.348 40.6137 582.56 39.7536C577.741 38.8877 573.768 39.9216 570.641 42.8551C567.515 45.7887 565.428 50.4586 564.38 56.865Z" fill="#256D85"/>
</svg>
